<svg xmlns="http://www.w3.org/2000/svg" width="92" height="92" viewBox="0 0 92 92">
  <metadata><?xpacket begin="﻿" id="W5M0MpCehiHzreSzNTczkc9d"?>
<x:xmpmeta xmlns:x="adobe:ns:meta/" x:xmptk="Adobe XMP Core 5.6-c138 79.159824, 2016/09/14-01:09:01        ">
   <rdf:RDF xmlns:rdf="http://www.w3.org/1999/02/22-rdf-syntax-ns#">
      <rdf:Description rdf:about=""/>
   </rdf:RDF>
</x:xmpmeta>
                                                                                                    
                                                                                                    
                                                                                                    
                                                                                                    
                                                                                                    
                                                                                                    
                                                                                                    
                                                                                                    
                                                                                                    
                                                                                                    
                                                                                                    
                                                                                                    
                                                                                                    
                                                                                                    
                                                                                                    
                                                                                                    
                                                                                                    
                                                                                                    
                                                                                                    
                                                                                                    
                           
<?xpacket end="w"?></metadata>
<defs>
    <style>
      .cls-1 {
        fill: #969696;
        fill-rule: evenodd;
        mix-blend-mode: darken;
      }
    </style>
  </defs>
  <path id="hotdog" class="cls-1" d="M89.564,26.206l-3.531-4.631,0.013-.023q0.224-.37.416-0.753c0.025-.05.05-0.1,0.075-0.151,0.117-.241.227-0.484,0.326-0.731,0.026-.064.048-0.129,0.073-0.194q0.111-.292.2-0.588c0.031-.1.061-0.19,0.089-0.286,0.058-.2.109-0.4,0.156-0.606,0.026-.112.051-0.224,0.073-0.336,0.042-.209.078-0.418,0.108-0.628,0.017-.122.03-0.244,0.044-0.366,0.016-.147.028-0.295,0.039-0.443q0.018-.258.024-0.517c0-.15,0-0.3,0-0.449,0-.117,0-0.235-0.008-0.352-0.01-.217-0.027-0.433-0.049-0.649-0.011-.107-0.024-0.214-0.038-0.321-0.03-.227-0.064-0.455-0.108-0.681-0.015-.077-0.034-0.154-0.05-0.231q-0.065-.3-0.146-0.6c-0.018-.067-0.035-0.135-0.054-0.2-0.072-.245-0.154-0.487-0.242-0.727-0.024-.064-0.048-0.128-0.073-0.192-0.1-.246-0.2-0.49-0.312-0.731-0.02-.043-0.043-0.086-0.063-0.129-0.117-.241-0.242-0.479-0.378-0.713l-0.031-.055c-0.143-.244-0.3-0.482-0.461-0.717-0.03-.043-0.059-0.085-0.089-0.128q-0.244-.341-0.515-0.668c-0.032-.038-0.065-0.076-0.1-0.114-0.192-.224-0.39-0.444-0.6-0.656s-0.432-.411-0.657-0.6l-0.114-.1q-0.326-.272-0.668-0.515L82.79,6.335c-0.235-.163-0.473-0.318-0.717-0.461l-0.055-.031c-0.234-.135-0.472-0.261-0.713-0.378L81.177,5.4c-0.24-.113-0.484-0.216-0.73-0.312l-0.193-.072c-0.24-.088-0.482-0.17-0.727-0.242-0.067-.02-0.134-0.036-0.2-0.054q-0.3-.082-0.6-0.146c-0.077-.016-0.153-0.035-0.231-0.05-0.226-.044-0.453-0.078-0.681-0.108C77.706,4.4,77.6,4.389,77.492,4.378c-0.216-.022-0.432-0.04-0.649-0.049-0.117-.005-0.234-0.007-0.352-0.008q-0.224,0-.449,0-0.259.006-.517,0.024c-0.148.01-.3,0.023-0.443,0.039-0.122.013-.244,0.027-0.366,0.044q-0.315.045-.628,0.108c-0.112.023-.224,0.048-0.336,0.073-0.2.047-.405,0.1-0.606,0.156-0.1.028-.191,0.059-0.286,0.089q-0.3.094-.588,0.2c-0.065.025-.13,0.047-0.194,0.073-0.247.1-.49,0.209-0.731,0.326L71.2,5.534q-0.383.193-.753,0.416l-0.023.013-4.631-3.53A12.01,12.01,0,0,0,50.07,3.488L3.491,50.066A12.009,12.009,0,0,0,2.436,65.784l3.53,4.631c0,0.008-.009.017-0.014,0.025q-0.222.368-.414,0.749c-0.026.052-.051,0.1-0.077,0.156-0.116.239-.226,0.481-0.324,0.727-0.027.066-.05,0.133-0.075,0.2q-0.109.287-.2,0.579c-0.032.1-.064,0.2-0.093,0.3-0.057.2-.107,0.394-0.153,0.593-0.026.114-.052,0.227-0.074,0.341-0.041.207-.077,0.415-0.107,0.624-0.017.123-.031,0.247-0.044,0.371-0.016.145-.028,0.29-0.038,0.435q-0.018.263-.025,0.525-0.005.221,0,.443c0,0.119,0,.237.009,0.355,0.01,0.216.027,0.432,0.049,0.647,0.011,0.108.024,0.215,0.039,0.323,0.03,0.227.064,0.454,0.108,0.679,0.015,0.078.034,0.155,0.051,0.232q0.065,0.3.146,0.6c0.018,0.067.035,0.135,0.054,0.2,0.071,0.245.153,0.486,0.242,0.727,0.024,0.065.048,0.129,0.073,0.193,0.1,0.246.2,0.49,0.312,0.73,0.02,0.043.043,0.085,0.063,0.129,0.117,0.241.243,0.479,0.378,0.713l0.031,0.055c0.143,0.244.3,0.482,0.461,0.717,0.03,0.043.059,0.085,0.089,0.127q0.244,0.342.515,0.668c0.032,0.038.065,0.076,0.1,0.114,0.192,0.224.391,0.445,0.6,0.657s0.432,0.411.657,0.6c0.038,0.033.076,0.066,0.114,0.1q0.326,0.272.668,0.515l0.128,0.089c0.235,0.163.473,0.318,0.717,0.462l0.055,0.031c0.234,0.135.472,0.261,0.713,0.378l0.128,0.063c0.24,0.113.484,0.216,0.73,0.312l0.194,0.073c0.24,0.088.482,0.17,0.727,0.241,0.067,0.02.134,0.036,0.2,0.054q0.3,0.082.6,0.146c0.078,0.017.154,0.035,0.232,0.05,0.225,0.044.452,0.078,0.679,0.108,0.108,0.014.215,0.027,0.323,0.039,0.215,0.022.431,0.039,0.647,0.049,0.118,0.005.237,0.007,0.355,0.008,0.148,0,.3,0,0.443,0q0.263-.006.525-0.025c0.145-.01.29-0.022,0.435-0.038,0.124-.013.247-0.027,0.37-0.044,0.209-.03.417-0.066,0.624-0.107,0.114-.023.227-0.048,0.341-0.074,0.2-.046.4-0.1,0.593-0.153,0.1-.029.2-0.061,0.3-0.093q0.292-.093.579-0.2c0.067-.025.134-0.049,0.2-0.075,0.245-.1.487-0.208,0.727-0.324l0.156-.077q0.381-.192.749-0.414l0.025-.014,4.632,3.531A12.009,12.009,0,0,0,41.929,88.5L88.508,41.924A12.009,12.009,0,0,0,89.564,26.206ZM20.657,82.489c-0.1.078-.2,0.146-0.3,0.219-0.123.09-.245,0.182-0.371,0.265s-0.236.141-.356,0.21c-0.1.055-.189,0.115-0.286,0.166a7.889,7.889,0,0,1-1.407.57l-0.013,0q-0.355.1-.718,0.175l-0.075.012c-0.22.041-.441,0.073-0.663,0.1-0.041,0-.082.005-0.123,0.009-0.2.017-.41,0.028-0.615,0.029-0.055,0-.11,0-0.165,0-0.19,0-.379-0.011-0.568-0.027-0.068-.006-0.135-0.014-0.2-0.021q-0.261-.029-0.521-0.075-0.118-.021-0.235-0.046c-0.16-.034-0.319-0.073-0.477-0.116-0.086-.024-0.173-0.048-0.258-0.075-0.148-.046-0.294-0.1-0.439-0.153-0.091-.034-0.182-0.068-0.271-0.106-0.138-.058-0.274-0.123-0.41-0.19-0.091-.045-0.183-0.087-0.272-0.136-0.134-.072-0.264-0.152-0.394-0.232-0.085-.053-0.173-0.1-0.256-0.158-0.139-.093-0.273-0.2-0.407-0.3-0.069-.053-0.141-0.1-0.209-0.157-0.2-.163-0.392-0.337-0.578-0.522s-0.359-.379-0.522-0.578c-0.056-.068-0.1-0.14-0.157-0.209-0.1-.134-0.206-0.268-0.3-0.406-0.056-.084-0.106-0.171-0.159-0.256-0.08-.13-0.16-0.26-0.232-0.394-0.048-.09-0.091-0.181-0.136-0.272-0.066-.136-0.132-0.272-0.19-0.41-0.038-.09-0.071-0.18-0.106-0.271-0.055-.145-0.107-0.291-0.153-0.439C8.088,78.6,8.063,78.516,8.039,78.43,8,78.272,7.957,78.113,7.923,77.953Q7.9,77.836,7.877,77.718,7.831,77.459,7.8,77.2c-0.008-.068-0.016-0.135-0.021-0.2-0.016-.189-0.024-0.379-0.027-0.568,0-.055,0-0.11,0-0.165,0-.205.012-0.41,0.029-0.615,0-.041,0-0.082.009-0.123,0.022-.222.055-0.443,0.1-0.662,0-.025.007-0.05,0.012-0.075q0.071-.362.175-0.718l0-.014a7.893,7.893,0,0,1,.569-1.407c0.051-.1.111-0.19,0.166-0.286,0.069-.119.135-0.24,0.21-0.356s0.174-.248.265-0.371c0.073-.1.141-0.2,0.219-0.3L9.536,71.3q0.249-.3.533-0.59L70.712,10.065A7.9,7.9,0,0,1,71.3,9.533L71.343,9.5c0.095-.077.2-0.143,0.293-0.215,0.124-.091.248-0.185,0.376-0.268,0.113-.073.229-0.137,0.345-0.2,0.1-.057.2-0.12,0.3-0.172a7.89,7.89,0,0,1,1.406-.569l0.022-.005q0.351-.1.71-0.173l0.08-.013c0.218-.04.437-0.073,0.658-0.095,0.042,0,.085-0.006.127-0.009,0.2-.017.407-0.028,0.611-0.029,0.056,0,.112,0,0.167,0,0.189,0,.378.011,0.566,0.027,0.068,0.006.136,0.014,0.2,0.021q0.261,0.029.52,0.075,0.118,0.021.235,0.046,0.24,0.05.476,0.116c0.087,0.024.174,0.048,0.26,0.075,0.147,0.046.293,0.1,0.438,0.153,0.091,0.034.182,0.068,0.272,0.106,0.138,0.058.274,0.124,0.409,0.19C79.906,8.6,80,8.647,80.087,8.7c0.134,0.072.264,0.152,0.394,0.232,0.085,0.053.173,0.1,0.257,0.159,0.139,0.093.273,0.2,0.407,0.3,0.069,0.053.141,0.1,0.209,0.158,0.2,0.163.392,0.337,0.578,0.522s0.359,0.379.522,0.578c0.056,0.068.1,0.14,0.157,0.209,0.1,0.134.206,0.268,0.3,0.407,0.056,0.084.106,0.171,0.158,0.256,0.08,0.13.16,0.26,0.233,0.394,0.048,0.09.091,0.181,0.136,0.273,0.066,0.135.131,0.271,0.189,0.409,0.038,0.09.072,0.181,0.106,0.273,0.055,0.145.107,0.29,0.153,0.438,0.027,0.086.051,0.173,0.075,0.26,0.043,0.158.082,0.316,0.116,0.476,0.017,0.078.032,0.157,0.046,0.236q0.046,0.259.075,0.52c0.008,0.068.016,0.136,0.021,0.2,0.016,0.188.024,0.377,0.027,0.566,0,0.056,0,.111,0,0.167,0,0.2-.012.408-0.029,0.612,0,0.042,0,.084-0.009.126-0.022.22-.055,0.44-0.095,0.658,0,0.027-.008.053-0.013,0.08q-0.07.358-.173,0.71c0,0.007,0,.015-0.005.022a7.89,7.89,0,0,1-.569,1.406c-0.053.1-.115,0.2-0.172,0.3-0.067.115-.13,0.232-0.2,0.345-0.083.128-.176,0.252-0.268,0.376-0.072.1-.138,0.2-0.215,0.293l-0.034.043q-0.249.3-.532,0.589L21.288,81.924c-0.189.19-.386,0.366-0.589,0.533Zm-14.74-30L52.5,5.914A8.569,8.569,0,0,1,63.71,5.161l4,3.052-59.5,59.5-3.051-4A8.567,8.567,0,0,1,5.917,52.491ZM39.5,86.076a8.568,8.568,0,0,1-11.214.753l-4-3.051,59.5-59.5,3.052,4h0A8.567,8.567,0,0,1,86.082,39.5ZM68.072,27.268a13.74,13.74,0,0,0,3.459-6.012,0.658,0.658,0,0,0-1.281-.3c-0.016.067-1.628,6.653-8.187,8.187-7.34,1.717-9.233,8.994-9.3,9.278-0.018.063-1.9,6.315-7.629,7.654-6.356,1.486-8.493,8.106-8.645,8.6-0.117.318-2.5,6.582-7.773,7.815-6.113,1.43-8.148,7.926-8.232,8.2a0.658,0.658,0,0,0,1.259.383c0.019-.06,1.909-6.049,7.273-7.3,6.093-1.426,8.614-8.374,8.728-8.7,0.019-.064,1.979-6.382,7.69-7.718,6.466-1.512,8.509-8.279,8.6-8.592,0.017-.068,1.766-6.8,8.334-8.34A11.715,11.715,0,0,0,68.072,27.268Z"/>
</svg>
