<svg xmlns="http://www.w3.org/2000/svg" xmlns:xlink="http://www.w3.org/1999/xlink" width="69" height="67" viewBox="0 0 69 67">
  <metadata><?xpacket begin="﻿" id="W5M0MpCehiHzreSzNTczkc9d"?>
<x:xmpmeta xmlns:x="adobe:ns:meta/" x:xmptk="Adobe XMP Core 5.6-c138 79.159824, 2016/09/14-01:09:01        ">
   <rdf:RDF xmlns:rdf="http://www.w3.org/1999/02/22-rdf-syntax-ns#">
      <rdf:Description rdf:about=""/>
   </rdf:RDF>
</x:xmpmeta>
                                                                                                    
                                                                                                    
                                                                                                    
                                                                                                    
                                                                                                    
                                                                                                    
                                                                                                    
                                                                                                    
                                                                                                    
                                                                                                    
                                                                                                    
                                                                                                    
                                                                                                    
                                                                                                    
                                                                                                    
                                                                                                    
                                                                                                    
                                                                                                    
                                                                                                    
                                                                                                    
                           
<?xpacket end="w"?></metadata>
<defs>
    <style>
      .cls-1 {
        fill: #fff;
        fill-rule: evenodd;
        filter: url(#filter);
      }
    </style>
    <filter id="filter" x="5" y="3" width="59" height="60" filterUnits="userSpaceOnUse">
      <feFlood result="flood" flood-color="#fff"/>
      <feComposite result="composite" operator="in" in2="SourceGraphic"/>
      <feBlend result="blend" in2="SourceGraphic"/>
    </filter>
  </defs>
  <path id="Instagram" class="cls-1" d="M63.987,55.507v3.75A3.72,3.72,0,0,1,60.3,63.008H8.681a3.72,3.72,0,0,1-3.687-3.751V48h0V21.748h0v-15A3.719,3.719,0,0,1,8.681,2.993H60.3a3.719,3.719,0,0,1,3.687,3.751v3.751s0,0,0,0V55.506S63.987,55.506,63.987,55.507ZM34.491,25.5c-6.79,0-7.374,7.5-7.374,7.5s-0.214,7.5,7.374,7.5S41.865,33,41.865,33,41.281,25.5,34.491,25.5Zm22.122-15H45.552V21.747H56.613V10.494Zm0,22.506h0V29.249h-7.9A15.122,15.122,0,0,1,49.239,33v0h0a14.75,14.75,0,1,1-29.5,0,15.111,15.111,0,0,1,.521-3.752h-7.9V55.506H56.613V44.253h0V33Z"/>
</svg>
